<svg width="540" height="100" viewBox="0 0 540 100" fill="none" xmlns="http://www.w3.org/2000/svg">
<path d="M51.1 12C49.3 12 47.3 11.8667 45.1 11.6C42.9667 11.2667 40.3 10.7667 37.1 10.1L32.9 30H47.5L45.9 37.4H31.3L23.2 75H8.8L23.2 8.2C18.6 8.4 15.2667 10.1667 13.2 13.5C11.2 16.8333 10.2 21.9667 10.2 28.9C10.2 30.1667 10.2667 31.2667 10.4 32.2C10.6 33.1333 10.9 34.0333 11.3 34.9C11.4333 35.1667 11.5 35.3667 11.5 35.5C11.5667 35.5667 11.6 35.6333 11.6 35.7C7.86667 35.7 5.13333 34.9333 3.4 33.4C1.73333 31.8 0.9 29.3333 0.9 26C0.9 18.0667 3.86667 11.7667 9.8 7.1C15.8 2.36666 24.2 -5.96046e-06 35 -5.96046e-06C35.6 -5.96046e-06 36.3333 0.0333289 37.2 0.0999987C38.0667 0.166665 39.5 0.299996 41.5 0.499994C44.1667 0.766661 46.2 0.966662 47.6 1.1C49.0667 1.16666 50.4 1.2 51.6 1.2C53.4 1.2 55.0333 1.1 56.5 0.899994C57.9667 0.699997 59.3333 0.399997 60.6 -5.96046e-06C60.5333 0.13333 60.2333 1.16666 59.7 3.1C59.1667 5.03333 58.5333 6.56666 57.8 7.7C57.0667 8.83333 56.1333 9.76666 55 10.5C53.9333 11.1667 52.6333 11.6667 51.1 12ZM70.5984 11.7C70.5984 13.9 69.7984 15.7667 68.1984 17.3C66.6651 18.8333 64.7984 19.6 62.5984 19.6C60.3984 19.6 58.5318 18.8333 56.9984 17.3C55.4651 15.7667 54.6984 13.9 54.6984 11.7C54.6984 9.5 55.4651 7.63333 56.9984 6.1C58.5318 4.5 60.3984 3.69999 62.5984 3.69999C64.7984 3.69999 66.6651 4.5 68.1984 6.1C69.7984 7.63333 70.5984 9.5 70.5984 11.7ZM45.0984 63.6C45.0984 62.7333 45.1651 61.7667 45.2984 60.7C45.4318 59.5667 45.6318 58.3667 45.8984 57.1L52.6984 25H67.0984L59.8984 59C59.7651 59.6 59.6651 60.1667 59.5984 60.7C59.5318 61.1667 59.4984 61.6667 59.4984 62.2C59.4984 63.5333 59.7984 64.5 60.3984 65.1C61.0651 65.6333 62.1318 65.9 63.5984 65.9C65.4651 65.9 67.2318 65.1 68.8984 63.5C70.5651 61.8333 71.7984 59.7 72.5984 57.1H76.7984C74.6651 63.1667 71.7984 67.7667 68.1984 70.9C64.5984 74.0333 60.4651 75.6 55.7984 75.6C52.4651 75.6 49.8318 74.5667 47.8984 72.5C46.0318 70.3667 45.0984 67.4 45.0984 63.6ZM71.7586 63.6C71.7586 62.7333 71.8253 61.7667 71.9586 60.7C72.0919 59.5667 72.2919 58.3667 72.5586 57.1L83.2586 7L98.0586 5L86.5586 59C86.4253 59.6 86.3253 60.1667 86.2586 60.7C86.1919 61.1667 86.1586 61.6667 86.1586 62.2C86.1586 63.5333 86.4586 64.5 87.0586 65.1C87.7253 65.6333 88.7919 65.9 90.2586 65.9C92.1253 65.9 93.8919 65.1 95.5586 63.5C97.2253 61.8333 98.4586 59.7 99.2586 57.1H103.459C101.325 63.1667 98.4586 67.7667 94.8586 70.9C91.2586 74.0333 87.1253 75.6 82.4586 75.6C79.1253 75.6 76.4919 74.5667 74.5586 72.5C72.6919 70.3667 71.7586 67.4 71.7586 63.6ZM123.43 11.7C123.43 13.9 122.63 15.7667 121.03 17.3C119.497 18.8333 117.63 19.6 115.43 19.6C113.23 19.6 111.364 18.8333 109.83 17.3C108.297 15.7667 107.53 13.9 107.53 11.7C107.53 9.5 108.297 7.63333 109.83 6.1C111.364 4.5 113.23 3.69999 115.43 3.69999C117.63 3.69999 119.497 4.5 121.03 6.1C122.63 7.63333 123.43 9.5 123.43 11.7ZM97.9305 63.6C97.9305 62.7333 97.9971 61.7667 98.1305 60.7C98.2638 59.5667 98.4638 58.3667 98.7305 57.1L105.53 25H119.93L112.73 59C112.597 59.6 112.497 60.1667 112.43 60.7C112.364 61.1667 112.33 61.6667 112.33 62.2C112.33 63.5333 112.63 64.5 113.23 65.1C113.897 65.6333 114.964 65.9 116.43 65.9C118.297 65.9 120.064 65.1 121.73 63.5C123.397 61.8333 124.63 59.7 125.43 57.1H129.63C127.497 63.1667 124.63 67.7667 121.03 70.9C117.43 74.0333 113.297 75.6 108.63 75.6C105.297 75.6 102.664 74.5667 100.73 72.5C98.8638 70.3667 97.9305 67.4 97.9305 63.6ZM138.191 64.6C138.457 65.3333 138.924 65.9 139.591 66.3C140.257 66.7 141.057 66.9 141.991 66.9C146.191 66.9 149.557 64.2 152.091 58.8C154.691 53.4 155.991 47.1333 155.991 40C155.991 37.2667 155.591 35.2 154.791 33.8C153.991 32.4 152.724 31.7 150.991 31.7C149.791 31.7 148.557 32.1667 147.291 33.1C146.024 33.9667 144.957 35.1333 144.091 36.6L138.191 64.6ZM131.391 96.4L116.291 100L132.991 21.3H147.391L145.791 28.8C147.457 27.4 149.257 26.3333 151.191 25.6C153.124 24.8667 155.224 24.5 157.491 24.5C161.491 24.5 164.524 25.8333 166.591 28.5C168.657 31.1667 169.691 35.1 169.691 40.3C169.691 50.5 167.491 58.9333 163.091 65.6C158.757 72.2667 152.757 75.6 145.091 75.6C142.957 75.6 141.157 75.3 139.691 74.7C138.291 74.1 137.257 73.2 136.591 72L131.391 96.4ZM210.138 33.7C210.138 39.2333 207.871 44.0667 203.338 48.2C198.804 52.2667 193.404 54.4667 187.138 54.8C187.071 55.9333 187.004 56.8 186.938 57.4C186.938 57.9333 186.938 58.4 186.938 58.8C186.938 61.8667 187.438 64.0333 188.438 65.3C189.504 66.5667 191.404 67.2 194.138 67.2C197.271 67.2 200.138 66.5 202.738 65.1C205.404 63.6333 208.438 60.9667 211.838 57.1H215.238C211.371 63.3667 207.171 68.0333 202.638 71.1C198.104 74.1 193.138 75.6 187.738 75.6C182.604 75.6 178.704 74.2667 176.038 71.6C173.438 68.9333 172.137 64.9667 172.137 59.7C172.137 55.9 172.737 51.8667 173.938 47.6C175.138 43.3333 176.738 39.5333 178.738 36.2C181.204 32.2 184.138 29.2 187.538 27.2C191.004 25.1333 194.871 24.1 199.137 24.1C202.804 24.1 205.538 24.9 207.338 26.5C209.204 28.0333 210.138 30.4333 210.138 33.7ZM199.938 29.4C197.671 29.4 195.371 31.4333 193.038 35.5C190.771 39.5 189.071 44.3333 187.938 50C191.804 49.7333 195.171 47.9667 198.038 44.7C200.971 41.3667 202.438 37.6333 202.438 33.5C202.438 32.1 202.238 31.0667 201.838 30.4C201.438 29.7333 200.804 29.4 199.938 29.4ZM299.496 1.39999H313.896L303.396 75H288.996L295.396 30.1L276.596 75H262.896L264.896 29.9L248.196 75H240.196L265.596 6.3C260.463 8.03333 256.529 10.8333 253.796 14.7C251.063 18.5667 249.696 23.2667 249.696 28.8C249.696 30.1333 249.763 31.3 249.896 32.3C250.096 33.2333 250.396 34.1 250.796 34.9C250.929 35.1667 250.996 35.3667 250.996 35.5C251.063 35.5667 251.096 35.6333 251.096 35.7C247.496 35.7 244.796 34.9667 242.996 33.5C241.263 31.9667 240.396 29.6667 240.396 26.6C240.396 23.4 241.363 20.1667 243.296 16.9C245.296 13.5667 248.029 10.5333 251.496 7.79999C254.629 5.33333 257.996 3.43333 261.596 2.1C265.196 0.699995 268.729 -5.96046e-06 272.196 -5.96046e-06C273.463 -5.96046e-06 274.729 0.133328 275.996 0.399995C277.329 0.599996 278.596 0.933329 279.796 1.39999L277.496 54.1L299.496 1.39999ZM310.807 59.6C310.807 55.8 311.407 51.7667 312.607 47.5C313.874 43.2333 315.574 39.4333 317.707 36.1C320.174 32.1667 323.14 29.2 326.607 27.2C330.074 25.1333 333.94 24.1 338.207 24.1C342.474 24.1 345.674 25.4333 347.807 28.1C349.94 30.7667 351.007 34.7667 351.007 40.1C351.14 40.1667 351.274 40.2333 351.407 40.3C351.607 40.3 351.84 40.3 352.107 40.3C354.174 40.3 356.64 39.7333 359.507 38.6C362.374 37.4667 365.04 36.0333 367.507 34.3L368.407 37C366.54 39 364.04 40.7333 360.907 42.2C357.84 43.6667 354.44 44.7 350.707 45.3C349.907 54.3 347.307 61.5667 342.907 67.1C338.507 72.6333 333.14 75.4 326.807 75.4C321.607 75.4 317.64 74.0667 314.907 71.4C312.174 68.7333 310.807 64.8 310.807 59.6ZM339.007 30.2C335.807 30.2 332.774 33.4333 329.907 39.9C327.107 46.3667 325.707 52.5 325.707 58.3C325.707 61.4333 326.04 63.5667 326.707 64.7C327.44 65.8333 328.807 66.4 330.807 66.4C333.274 66.4 335.607 64.4 337.807 60.4C340.074 56.4 341.607 51.4667 342.407 45.6C341.474 45.4 340.774 44.9667 340.307 44.3C339.907 43.5667 339.707 42.6 339.707 41.4C339.707 40.1333 339.974 39.0333 340.507 38.1C341.04 37.1667 341.807 36.4667 342.807 36C342.674 33.8667 342.307 32.3667 341.707 31.5C341.174 30.6333 340.274 30.2 339.007 30.2ZM366.752 75H352.352L362.952 25H377.352L376.052 31.2C378.986 28.7333 381.286 27.1 382.952 26.3C384.686 25.4333 386.419 25 388.152 25C390.219 25 391.886 25.7333 393.152 27.2C394.419 28.6 395.052 30.3667 395.052 32.5C395.052 34.5667 394.386 36.3 393.052 37.7C391.719 39.1 389.986 39.8 387.852 39.8C386.719 39.8 385.819 39.5333 385.152 39C384.552 38.4667 384.119 37.3667 383.852 35.7C383.652 34.6333 383.419 33.9667 383.152 33.7C382.886 33.3667 382.519 33.2 382.052 33.2C380.919 33.2 379.852 33.4333 378.852 33.9C377.852 34.3667 376.486 35.4 374.752 37L366.752 75ZM430.255 33.7C430.255 39.2333 427.988 44.0667 423.455 48.2C418.921 52.2667 413.521 54.4667 407.255 54.8C407.188 55.9333 407.121 56.8 407.055 57.4C407.055 57.9333 407.055 58.4 407.055 58.8C407.055 61.8667 407.555 64.0333 408.555 65.3C409.621 66.5667 411.521 67.2 414.255 67.2C417.388 67.2 420.255 66.5 422.855 65.1C425.521 63.6333 428.555 60.9667 431.955 57.1H435.355C431.488 63.3667 427.288 68.0333 422.755 71.1C418.221 74.1 413.255 75.6 407.855 75.6C402.721 75.6 398.821 74.2667 396.155 71.6C393.555 68.9333 392.255 64.9667 392.255 59.7C392.255 55.9 392.855 51.8667 394.055 47.6C395.255 43.3333 396.855 39.5333 398.855 36.2C401.321 32.2 404.255 29.2 407.655 27.2C411.121 25.1333 414.988 24.1 419.255 24.1C422.921 24.1 425.655 24.9 427.455 26.5C429.321 28.0333 430.255 30.4333 430.255 33.7ZM420.055 29.4C417.788 29.4 415.488 31.4333 413.155 35.5C410.888 39.5 409.188 44.3333 408.055 50C411.921 49.7333 415.288 47.9667 418.155 44.7C421.088 41.3667 422.555 37.6333 422.555 33.5C422.555 32.1 422.355 31.0667 421.955 30.4C421.555 29.7333 420.921 29.4 420.055 29.4ZM456.722 64.3C456.722 63.1 456.855 61.6 457.122 59.8C457.455 58 458.089 55.1333 459.022 51.2C459.955 47.4 460.555 44.6667 460.822 43C461.089 41.3333 461.222 39.9333 461.222 38.8C461.222 37.1333 460.922 35.8667 460.322 35C459.722 34.1333 458.822 33.7 457.622 33.7C456.022 33.7 454.522 34.5333 453.122 36.2C451.789 37.8 450.689 40.0333 449.822 42.9L443.022 75H428.622L439.222 25H453.622L452.522 30.2C454.189 28.3333 455.989 26.9333 457.922 26C459.855 25.0667 461.955 24.6 464.222 24.6C467.755 24.6 470.489 25.5667 472.422 27.5C474.355 29.4333 475.322 32.2333 475.322 35.9C475.322 37.4333 475.122 39.2667 474.722 41.4C474.389 43.4667 473.689 46.6667 472.622 51C471.755 54.4 471.189 56.8 470.922 58.2C470.655 59.6 470.522 60.7667 470.522 61.7C470.522 63.1 470.855 64.1667 471.522 64.9C472.189 65.5667 473.189 65.9 474.522 65.9C476.189 65.9 477.622 65.3333 478.822 64.2C480.022 63.0667 481.389 60.7 482.922 57.1H487.122C484.989 63.3 482.389 67.9333 479.322 71C476.322 74.0667 472.722 75.6 468.522 75.6C464.789 75.6 461.889 74.6 459.822 72.6C457.755 70.5333 456.722 67.7667 456.722 64.3ZM481.51 59.6C481.51 55.8 482.11 51.7667 483.31 47.5C484.577 43.2333 486.277 39.4333 488.41 36.1C490.877 32.1667 493.843 29.2 497.31 27.2C500.777 25.1333 504.643 24.1 508.91 24.1C513.177 24.1 516.377 25.4333 518.51 28.1C520.643 30.7667 521.71 34.7667 521.71 40.1C521.843 40.1667 521.977 40.2333 522.11 40.3C522.31 40.3 522.543 40.3 522.81 40.3C524.877 40.3 527.343 39.7333 530.21 38.6C533.077 37.4667 535.743 36.0333 538.21 34.3L539.11 37C537.243 39 534.743 40.7333 531.61 42.2C528.543 43.6667 525.143 44.7 521.41 45.3C520.61 54.3 518.01 61.5667 513.61 67.1C509.21 72.6333 503.843 75.4 497.51 75.4C492.31 75.4 488.343 74.0667 485.61 71.4C482.877 68.7333 481.51 64.8 481.51 59.6ZM509.71 30.2C506.51 30.2 503.477 33.4333 500.61 39.9C497.81 46.3667 496.41 52.5 496.41 58.3C496.41 61.4333 496.743 63.5667 497.41 64.7C498.143 65.8333 499.51 66.4 501.51 66.4C503.977 66.4 506.31 64.4 508.51 60.4C510.777 56.4 512.31 51.4667 513.11 45.6C512.177 45.4 511.477 44.9667 511.01 44.3C510.61 43.5667 510.41 42.6 510.41 41.4C510.41 40.1333 510.677 39.0333 511.21 38.1C511.743 37.1667 512.51 36.4667 513.51 36C513.377 33.8667 513.01 32.3667 512.41 31.5C511.877 30.6333 510.977 30.2 509.71 30.2Z" fill="white"/>
</svg>
