<svg width="424" height="270" viewBox="0 0 424 270" fill="none" xmlns="http://www.w3.org/2000/svg">
<path d="M156.445 35.1387C165.332 35.1387 170.508 39.2891 171.973 47.5898V48.6152C171.973 54.6048 169.564 59.097 164.746 62.0918H162.646C161.67 62.0918 160.628 61.0501 159.521 58.9668C160.921 53.1074 161.621 49.6569 161.621 48.6152C160.286 45.4577 158.903 43.7324 157.471 43.4395H154.346C148.617 43.4395 137.907 45.8646 122.217 50.7148L123.242 52.7656V55.8906C123.242 57.5833 119.092 70.0182 110.791 93.1953C114.958 93.651 117.041 94.6927 117.041 96.3203V98.4199C117.041 99.429 113.574 101.154 106.641 103.596L90.0391 143H84.8633C81.4453 141.177 79.7201 139.794 79.6875 138.85L94.1895 103.596C77.0345 102.912 67.0085 100.487 64.1113 96.3203V95.2949L71.3867 93.1953C78.2878 94.5951 84.5052 95.2949 90.0391 95.2949H96.2891C99.4466 90.7376 104.622 78.2865 111.816 57.9414C112.533 57.9414 112.891 56.2161 112.891 52.7656C89.0951 58.2995 70.4264 61.0664 56.8848 61.0664C20.9147 58.9831 2.92969 55.5326 2.92969 50.7148V49.6406C5.01302 49.6406 7.43815 49.2988 10.2051 48.6152C26.0254 51.3822 39.502 52.7656 50.6348 52.7656H53.7598C71.0124 52.7656 100.749 47.2318 142.969 36.1641C147.493 35.4805 151.986 35.1387 156.445 35.1387ZM234.814 42.4141H236.914L237.939 46.5645C233.089 74.6569 230.664 94.709 230.664 106.721V125.373C237.435 114.761 250.57 88.4915 270.068 46.5645C274.561 45.1647 277.669 44.4648 279.395 44.4648C280.404 44.4648 281.445 45.5065 282.52 47.5898V63.1172C282.52 63.8333 282.178 64.1914 281.494 64.1914C281.494 64.875 281.836 65.2168 282.52 65.2168L281.494 70.3926V79.7188C281.494 126.626 287.712 152.912 300.146 158.576C302.425 163.752 314.176 169.969 335.4 177.229V180.354H334.375C309.082 180.354 289.73 168.244 276.318 144.025C271.468 130.386 269.043 111.034 269.043 85.9688V73.5176H268.018C256.006 100.926 243.213 125.812 229.639 148.176H227.539L220.312 146.125V98.4199C220.312 95.9134 220.654 92.7884 221.338 89.0449V88.0195H220.312C212.24 107.355 201.514 126.024 188.135 144.025C186.93 144.709 185.547 145.051 183.984 145.051H178.809V141.975C181.348 141.454 188.949 130.044 201.611 107.746C209.912 90.6888 218.555 69.5951 227.539 44.4648L234.814 42.4141Z" fill="white"/>
<path d="M342.1 213.8L366.8 191.5L372.7 198.2L356.3 213.4L373.5 228.3L367.1 235.4L342.1 213.8ZM421.482 213.1L396.782 235.4L390.882 228.7L407.282 213.5L390.082 198.6L396.482 191.5L421.482 213.1Z" fill="white"/>
</svg>
